<svg width="172" height="50" viewBox="0 0 172 50" fill="none" xmlns="http://www.w3.org/2000/svg">
<path d="M37.4158 6.05646C37.3754 3.16737 35.1202 0.38337 32.2597 0.0370326C30.6978 -0.152011 28.9309 0.382364 27.7143 1.64821C26.3343 3.08397 26.2424 4.85479 26.2824 5.74959C27.8627 4.15529 29.5348 3.78101 30.5474 4.61611C31.5204 5.4189 31.487 7.08832 29.5548 8.9792C29.0659 9.45779 28.5789 9.9385 28.091 10.4185C28.0923 10.4201 28.0937 10.4219 28.095 10.4235L25.4268 13.0469V20.6177L25.4276 20.6183L35.3376 10.8744L35.3373 10.8742C36.6284 9.65119 37.4406 7.83152 37.4158 6.05646Z" fill="#EB6B39"/>
<path d="M13.4371 6.05646C13.4774 3.16737 15.7327 0.38337 18.5932 0.0370326C20.1551 -0.152011 21.922 0.382364 23.1386 1.64821C24.5185 3.08397 24.6104 4.85479 24.5705 5.74959C22.9902 4.15529 21.3181 3.78101 20.3055 4.61611C19.3324 5.4189 19.3659 7.08832 21.2981 8.9792C21.787 9.45779 22.274 9.9385 22.7619 10.4185C22.7605 10.4201 22.7591 10.4219 22.7579 10.4235L25.4261 13.0469V20.6177L25.4253 20.6183L15.5153 10.8744L15.5154 10.8742C14.2244 9.65119 13.4123 7.83152 13.4371 6.05646Z" fill="#F0AA3C"/>
<path d="M6.15963 13.2125C3.22127 13.2521 0.389908 15.4695 0.0376644 18.2823C-0.154603 19.818 0.388885 21.5551 1.6762 22.7513C3.13645 24.1081 4.93747 24.1987 5.84775 24.1593C4.22627 22.6053 3.84549 20.9613 4.69483 19.9659C5.5112 19.0089 7.2092 19.0418 9.13233 20.9416C9.61896 21.4225 10.108 21.9011 10.5961 22.3809C10.5977 22.3796 10.5995 22.3783 10.6011 22.377L13.2693 25.0003H20.9692L20.9698 24.9998L11.0598 15.2559H11.0595C9.81578 13.9866 7.96508 13.188 6.15963 13.2125Z" fill="#78B950"/>
<path d="M6.15963 36.7879C3.22127 36.7483 0.389908 34.5309 0.0376644 31.7181C-0.154603 30.1825 0.388885 28.4453 1.6762 27.2492C3.13645 25.8922 4.93747 25.8018 5.84775 25.841C4.22627 27.3951 3.84549 29.039 4.69483 30.0346C5.5112 30.9915 7.2092 30.9585 9.13233 29.0588C9.61896 28.5779 10.108 28.0993 10.5961 27.6194C10.5977 27.6209 10.5995 27.6222 10.6011 27.6234L13.2693 25H20.9692L20.9698 25.0008L11.0598 34.7446L11.0595 34.7444C9.81578 36.0137 7.96508 36.8124 6.15963 36.7879Z" fill="#50B9AF"/>
<path d="M13.4371 43.9436C13.4774 46.8327 15.7327 49.6167 18.5932 49.9629C20.1551 50.1521 21.922 49.6176 23.1386 48.3519C24.5185 46.9161 24.6104 45.1453 24.5705 44.2503C22.9902 45.8446 21.3181 46.2191 20.3055 45.384C19.3324 44.5812 19.3659 42.9118 21.2981 41.0209C21.787 40.5423 22.274 40.0616 22.7619 39.5816C22.7605 39.58 22.7591 39.5782 22.7579 39.5766L25.4261 36.9532V29.3824L25.4253 29.3816L15.5153 39.1254L15.5154 39.1257C14.2244 40.3489 13.4123 42.1686 13.4371 43.9436Z" fill="#6496FF"/>
<path d="M37.4158 43.9436C37.3754 46.8327 35.1202 49.6167 32.2597 49.9629C30.6978 50.1521 28.9309 49.6176 27.7143 48.3519C26.3343 46.9161 26.2424 45.1453 26.2824 44.2503C27.8627 45.8446 29.5348 46.2191 30.5474 45.384C31.5204 44.5812 31.487 42.9118 29.5548 41.0209C29.0659 40.5423 28.5789 40.0616 28.091 39.5816C28.0923 39.58 28.0937 39.5782 28.095 39.5766L25.4268 36.9532V29.3824L25.4276 29.3816L35.3376 39.1254L35.3373 39.1257C36.6284 40.3489 37.4406 42.1686 37.4158 43.9436Z" fill="#4158B2"/>
<path d="M44.693 36.7879C47.6314 36.7483 50.4627 34.5309 50.8151 31.7181C51.0074 30.1825 50.4637 28.4453 49.1765 27.2492C47.7164 25.8922 45.9154 25.8018 45.0051 25.841C46.6266 27.3951 47.0071 29.039 46.1578 30.0346C45.3415 30.9915 43.6435 30.9585 41.7204 29.0588C41.2336 28.5779 40.7446 28.0993 40.2565 27.6194C40.2549 27.6209 40.2531 27.6222 40.2515 27.6234L37.5833 25H29.8836L29.8828 25.0008L39.7928 34.7446L39.793 34.7444C41.0368 36.0137 42.8877 36.8124 44.693 36.7879Z" fill="#A537EB"/>
<path d="M44.693 13.2125C47.6314 13.2521 50.4627 15.4695 50.8151 18.2823C51.0074 19.818 50.4637 21.5551 49.1765 22.7513C47.7164 24.1081 45.9154 24.1987 45.0051 24.1593C46.6266 22.6053 47.0071 20.9613 46.1578 19.9659C45.3415 19.0089 43.6435 19.0418 41.7204 20.9416C41.2336 21.4225 40.7446 21.9011 40.2565 22.3809C40.2549 22.3796 40.2531 22.3783 40.2515 22.377L37.5833 25.0003H29.8836L29.8828 24.9998L39.7928 15.2559H39.793C41.0368 13.9866 42.8877 13.188 44.693 13.2125Z" fill="#DC41F5"/>
<path d="M70.8119 11.2H72.4931C73.1702 11.2 73.6782 11.0658 74.0165 10.7973C74.3551 10.5286 74.5245 10.1233 74.5245 9.58049C74.5245 9.0602 74.3593 8.6573 74.0293 8.372C73.6995 8.08659 73.2045 7.94405 72.5444 7.94405H70.8119V11.2ZM161.785 47.5213V35.7728H164.26L169.543 43.4178V35.7728H172.001V47.5213H169.526L164.234 39.7758V47.5213H161.785ZM152.584 42.9058H155.921L154.231 38.5001L152.584 42.9058ZM148.317 47.5213L152.84 35.7728H155.716L160.308 47.5213H157.466L156.536 45.0039H151.987L151.082 47.5213H148.317ZM142.914 47.5213V38.047H139.671V35.7728H148.701V38.047H145.458V47.5213H142.914ZM134.089 47.7731C133.207 47.7731 132.351 47.6472 131.52 47.3954C130.69 47.1438 129.987 46.7774 129.412 46.2963L130.616 44.4332C130.877 44.6906 131.2 44.9114 131.584 45.0962C131.968 45.2807 132.378 45.4222 132.813 45.5199C133.249 45.6177 133.677 45.6666 134.098 45.6666C134.746 45.6666 135.273 45.555 135.677 45.331C136.081 45.1073 136.283 44.78 136.283 44.3494C136.283 44.0025 136.141 43.7128 135.856 43.4805C135.571 43.2487 135.042 43.0262 134.269 42.8137L133.176 42.5114C131.975 42.1815 131.11 41.7339 130.581 41.1688C130.052 40.604 129.788 39.9184 129.788 39.1127C129.788 38.5923 129.899 38.113 130.12 37.6736C130.342 37.2345 130.654 36.8555 131.055 36.5367C131.456 36.2176 131.931 35.9701 132.481 35.7938C133.03 35.6175 133.625 35.5294 134.269 35.5294C135.139 35.5294 135.948 35.6541 136.697 35.903C137.445 36.1519 138.052 36.4918 138.519 36.9226L137.273 38.7268C137.045 38.5087 136.77 38.3171 136.449 38.1521C136.127 37.987 135.779 37.8582 135.404 37.766C135.028 37.6736 134.65 37.6276 134.269 37.6276C133.859 37.6276 133.499 37.6819 133.189 37.7912C132.879 37.9002 132.638 38.057 132.468 38.2611C132.297 38.4653 132.212 38.7099 132.212 38.9952C132.212 39.2136 132.273 39.3995 132.395 39.5533C132.517 39.7073 132.725 39.8512 133.018 39.9855C133.311 40.1197 133.714 40.2596 134.226 40.4052L135.352 40.7325C136.536 41.0736 137.395 41.5075 137.93 42.0331C138.465 42.5591 138.732 43.2415 138.732 44.0806C138.732 44.8081 138.546 45.4501 138.173 46.0066C137.801 46.5632 137.266 46.9967 136.569 47.3074C135.872 47.6178 135.045 47.7731 134.089 47.7731ZM121.569 45.6584C121.898 45.6584 122.221 45.6178 122.537 45.5367C122.853 45.4557 123.145 45.3369 123.412 45.18L121.79 43.3255L123.13 42.1674L124.761 43.9884C124.988 43.6807 125.166 43.3309 125.294 42.9396C125.422 42.5479 125.486 42.1171 125.486 41.6471C125.486 40.8528 125.311 40.1605 124.961 39.5701C124.611 38.9799 124.14 38.524 123.549 38.2022C122.957 37.8808 122.297 37.7197 121.569 37.7197C121.022 37.7197 120.517 37.8121 120.054 37.9967C119.59 38.1813 119.186 38.4458 118.842 38.7896C118.497 39.1338 118.229 39.5465 118.035 40.0274C117.842 40.5087 117.745 41.0484 117.745 41.6471C117.745 42.4416 117.911 43.1407 118.244 43.745C118.577 44.3493 119.032 44.8191 119.61 45.1547C120.187 45.4905 120.84 45.6584 121.569 45.6584ZM126.16 48.3268L124.863 46.8835C124.368 47.1633 123.836 47.3815 123.267 47.5381C122.698 47.6946 122.103 47.7731 121.483 47.7731C120.607 47.7731 119.789 47.6205 119.029 47.3156C118.27 47.0107 117.605 46.5829 117.037 46.0319C116.467 45.481 116.024 44.8332 115.705 44.0891C115.386 43.3451 115.227 42.5312 115.227 41.6471C115.227 40.7743 115.386 39.9661 115.705 39.2218C116.024 38.4779 116.469 37.8289 117.041 37.275C117.612 36.7212 118.284 36.2904 119.055 35.9828C119.826 35.675 120.664 35.5211 121.569 35.5211C122.456 35.5211 123.284 35.675 124.052 35.9828C124.82 36.2904 125.494 36.7199 126.075 37.2708C126.655 37.822 127.108 38.4667 127.432 39.2051C127.756 39.9436 127.919 40.7436 127.919 41.6052C127.919 42.4054 127.781 43.1535 127.505 43.85C127.229 44.5465 126.846 45.1606 126.357 45.6919L127.611 47.0765L126.16 48.3268ZM107.11 42.9058H110.448L108.758 38.5001L107.11 42.9058ZM102.843 47.5213L107.366 35.7728H110.243L114.835 47.5213H111.992L111.062 45.0039H106.513L105.608 47.5213H102.843ZM93.506 47.5213V45.4484L99.0794 38.047H93.7023V35.7728H102.135V37.8373L96.5872 45.2471H102.186V47.5213H93.506ZM85.0651 42.9058H88.4022L86.7123 38.5001L85.0651 42.9058ZM80.7977 47.5213L85.321 35.7728H88.1977L92.7893 47.5213H89.9471L89.0169 45.0039H84.4676L83.5629 47.5213H80.7977ZM73.8843 45.6584C74.2145 45.6584 74.5374 45.6178 74.8532 45.5367C75.1689 45.4557 75.4603 45.3369 75.7278 45.18L74.1063 43.3255L75.4462 42.1674L77.0765 43.9884C77.3039 43.6807 77.4816 43.3309 77.6098 42.9396C77.7377 42.5479 77.8019 42.1171 77.8019 41.6471C77.8019 40.8528 77.6268 40.1605 77.2771 39.5701C76.9269 38.9799 76.4562 38.524 75.8646 38.2022C75.2725 37.8808 74.6125 37.7197 73.8843 37.7197C73.3382 37.7197 72.833 37.8121 72.3693 37.9967C71.9057 38.1813 71.5017 38.4458 71.1574 38.7896C70.8132 39.1338 70.5443 39.5465 70.3509 40.0274C70.1574 40.5087 70.0607 41.0484 70.0607 41.6471C70.0607 42.4416 70.2272 43.1407 70.5599 43.745C70.8928 44.3493 71.3481 44.8191 71.9256 45.1547C72.5031 45.4905 73.1559 45.6584 73.8843 45.6584ZM78.4762 48.3268L77.1787 46.8835C76.6836 47.1633 76.1518 47.3815 75.5827 47.5381C75.0139 47.6946 74.4192 47.7731 73.7991 47.7731C72.9228 47.7731 72.1049 47.6205 71.3453 47.3156C70.5856 47.0107 69.9211 46.5829 69.3524 46.0319C68.7832 45.481 68.3396 44.8332 68.0209 44.0891C67.7023 43.3451 67.543 42.5312 67.543 41.6471C67.543 40.7743 67.7023 39.9661 68.0209 39.2218C68.3396 38.4779 68.7848 37.8289 69.3566 37.275C69.9284 36.7212 70.5998 36.2904 71.3708 35.9828C72.1419 35.675 72.9797 35.5211 73.8843 35.5211C74.7719 35.5211 75.5998 35.675 76.3679 35.9828C77.1361 36.2904 77.8103 36.7199 78.3908 37.2708C78.9711 37.822 79.4234 38.4667 79.7477 39.2051C80.0722 39.9436 80.2342 40.7436 80.2342 41.6052C80.2342 42.4054 80.0963 43.1535 79.8203 43.85C79.5443 44.5465 79.1617 45.1606 78.6725 45.6919L79.927 47.0765L78.4762 48.3268ZM121.679 24.0319H123.685C124.339 24.0319 124.85 23.9016 125.217 23.6416C125.584 23.3814 125.767 22.9634 125.767 22.387C125.767 21.8109 125.58 21.3844 125.204 21.1072C124.829 20.8304 124.328 20.692 123.702 20.692H121.679V24.0319ZM119.153 30.2921V18.5436H123.787C124.664 18.5436 125.44 18.6935 126.117 18.9925C126.794 19.2919 127.326 19.7256 127.713 20.2932C128.101 20.8612 128.294 21.5452 128.294 22.345C128.294 23.1508 128.115 23.8347 127.756 24.3969C127.398 24.9592 126.878 25.3885 126.198 25.6851C125.519 25.9817 124.695 26.1298 123.728 26.1298H121.679V30.2921H119.153ZM111.369 30.5437C110.265 30.5437 109.341 30.3269 108.596 29.8934C107.85 29.46 107.288 28.8668 106.91 28.1146C106.531 27.3621 106.343 26.5046 106.343 25.5424V18.5437H108.877V25.6096C108.877 26.4822 109.098 27.1339 109.539 27.5648C109.979 27.9956 110.59 28.2109 111.369 28.2109C112.143 28.2109 112.751 27.9956 113.192 27.5648C113.633 27.1339 113.853 26.4822 113.853 25.6096V18.5437H116.388V25.5424C116.388 26.4989 116.199 27.3549 115.82 28.1102C115.442 28.8655 114.88 29.46 114.135 29.8934C113.389 30.3269 112.467 30.5437 111.369 30.5437ZM97.9783 28.2109C98.5076 28.2109 98.9967 28.1215 99.4461 27.9424C99.8958 27.7633 100.288 27.5076 100.624 27.1745C100.96 26.8419 101.22 26.4431 101.405 25.9787C101.59 25.5144 101.682 24.9942 101.682 24.4178C101.682 23.6515 101.52 22.9845 101.196 22.4165C100.872 21.8486 100.431 21.4081 99.873 21.0947C99.3152 20.7813 98.6839 20.6248 97.9783 20.6248C97.4549 20.6248 96.9669 20.7144 96.5145 20.8934C96.0622 21.0725 95.6695 21.3283 95.3366 21.6613C95.0039 21.9941 94.745 22.3926 94.5601 22.857C94.3749 23.3214 94.2827 23.8416 94.2827 24.4178C94.2827 25.1842 94.4449 25.8515 94.7692 26.4193C95.0934 26.9872 95.5344 27.4277 96.0921 27.7408C96.6497 28.0544 97.2783 28.2109 97.9783 28.2109ZM97.9783 30.5437C97.0678 30.5437 96.2257 30.3886 95.452 30.0782C94.678 29.7677 94.0051 29.3354 93.4336 28.7816C92.8615 28.2277 92.4191 27.5787 92.1062 26.8348C91.7932 26.0908 91.637 25.2851 91.637 24.4178C91.637 23.545 91.7932 22.7367 92.1062 21.9925C92.4191 21.2485 92.8615 20.5996 93.4336 20.0456C94.0051 19.4919 94.678 19.0613 95.452 18.7535C96.2257 18.4459 97.0678 18.2918 97.9783 18.2918C98.8887 18.2918 99.7291 18.4487 100.5 18.7619C101.271 19.075 101.943 19.5115 102.514 20.0709C103.086 20.6305 103.532 21.2807 103.85 22.0219C104.169 22.7633 104.328 23.5618 104.328 24.4178C104.328 25.2851 104.169 26.0908 103.85 26.8348C103.532 27.5787 103.086 28.2277 102.514 28.7816C101.943 29.3354 101.271 29.7677 100.5 30.0782C99.7291 30.3886 98.8887 30.5437 97.9783 30.5437ZM83.5629 23.822H85.4405C86.0893 23.822 86.597 23.6919 86.964 23.4317C87.3312 23.1717 87.5144 22.7759 87.5144 22.2445C87.5144 21.696 87.3438 21.2865 87.0024 21.015C86.6611 20.7437 86.169 20.6079 85.5259 20.6079H83.5629V23.822ZM81.0365 30.2921V18.5436H85.7735C86.6383 18.5436 87.3936 18.685 88.0395 18.9674C88.6851 19.2499 89.1833 19.6569 89.5331 20.1884C89.8828 20.72 90.0579 21.355 90.0579 22.0932C90.0579 22.6754 89.9411 23.1857 89.7082 23.6248C89.4747 24.0642 89.1547 24.4292 88.7477 24.7199C88.3412 25.0108 87.873 25.2235 87.3438 25.3577L90.6895 30.2921H87.6767L84.8003 25.8359H83.5629V30.2921H81.0365ZM74.2514 30.5437C73.3238 30.5437 72.4533 30.4024 71.6397 30.1201C70.8258 29.8376 70.1133 29.4318 69.5016 28.9033C68.8901 28.3745 68.4106 27.7326 68.0636 26.9774C67.7165 26.2221 67.543 25.3716 67.543 24.4263C67.543 23.492 67.7094 22.6472 68.0423 21.892C68.3751 21.1365 68.8404 20.4906 69.4378 19.9534C70.0351 19.4164 70.7308 19.005 71.5244 18.72C72.3182 18.4345 73.176 18.2918 74.0977 18.2918C74.5187 18.2918 74.9569 18.3242 75.4121 18.3883C75.8672 18.4528 76.3267 18.5659 76.7906 18.7282C77.2542 18.8905 77.7022 19.1143 78.1346 19.3995L77.0763 21.3296C76.6551 21.0612 76.2072 20.8626 75.7322 20.7338C75.2571 20.6053 74.7577 20.5408 74.2344 20.5408C73.6027 20.5408 73.0338 20.6305 72.5274 20.8094C72.0208 20.9884 71.5912 21.2472 71.2386 21.5856C70.8856 21.9241 70.6155 22.3338 70.4278 22.815C70.2401 23.2961 70.146 23.8388 70.146 24.443C70.146 25.2988 70.3309 26.0194 70.7009 26.604C71.0708 27.1886 71.5772 27.6306 72.2202 27.9298C72.8629 28.2292 73.5885 28.3787 74.3966 28.3787C74.7492 28.3787 75.0762 28.348 75.3781 28.2865C75.6795 28.225 75.9353 28.1522 76.1461 28.0682V25.7353H73.6198V23.7381H78.3737V29.562C78.0324 29.7635 77.6197 29.9384 77.1361 30.0865C76.6523 30.2347 76.156 30.348 75.6467 30.4262C75.1374 30.5047 74.6723 30.5437 74.2514 30.5437ZM91.4063 1.31456H93.9327V13.0631H91.4063V1.31456ZM82.2058 8.44757H85.5428L83.8528 4.04189L82.2058 8.44757ZM77.9384 13.0631L82.4616 1.31456H85.338L89.93 13.0631H87.0877L86.1573 10.5455H81.6083L80.7036 13.0631H77.9384ZM70.8119 6.1985H72.3822C72.7633 6.1985 73.092 6.13702 73.3682 6.01393C73.6439 5.89085 73.8573 5.71321 74.0081 5.48112C74.1587 5.24904 74.2344 4.97056 74.2344 4.64602C74.2344 4.17056 74.0706 3.80701 73.7436 3.55514C73.4163 3.30338 72.9484 3.1775 72.3395 3.1775H70.8119V6.1985ZM68.2854 13.063V1.31445H72.7321C73.9271 1.31445 74.8844 1.56509 75.6041 2.0656C76.3238 2.56643 76.6837 3.30908 76.6837 4.29365C76.6837 4.65172 76.604 4.98733 76.4448 5.30069C76.2854 5.61404 76.0748 5.8895 75.8132 6.12707C75.5513 6.36496 75.2641 6.55088 74.9513 6.68514C75.5999 6.898 76.1275 7.26435 76.5344 7.78452C76.9412 8.30492 77.1447 8.93164 77.1447 9.66434C77.1447 10.3471 76.971 10.9427 76.6239 11.4517C76.277 11.9608 75.7845 12.3568 75.1475 12.6392C74.5101 12.9218 73.7506 13.063 72.8688 13.063H68.2854Z" fill="white"/>
</svg>
